<?xml version="1.0" encoding="UTF-8" standalone="no"?>
<!-- Created with Inkscape (http://www.inkscape.org/) -->
<svg
   xmlns:svg="http://www.w3.org/2000/svg"
   xmlns="http://www.w3.org/2000/svg"
   version="1.0"
   width="43"
   height="36"
   viewBox="0 0 380 315"
   id="svg2">
  <defs
     id="defs4" />
  <path
     d="M 144.31225,145.25654 L 245.08947,145.59708 L 245.16938,172.8014 L 144.77172,172.8014 L 145.63606,242.63672 C 159.69208,266.7756 169.32811,281.72058 193.17845,281.72058 C 216.96284,281.72058 228.12216,266.59999 242.15376,242.31722 L 242.94407,182.6125 L 321.77163,217.8077 C 301.05736,270.91193 253.12897,307.73256 193.15316,307.73256 C 111.95225,307.73256 53.023256,241.39184 53.023256,157.49756 C 53.023256,73.603276 111.95225,7.2625547 193.15316,7.2625547 C 250.74768,7.2625547 297.23235,41.217342 319.17657,90.940344 L 243.79586,118.26141 L 244.33066,77.854614 C 230.27617,51.279606 218.22352,34.513635 193.17845,34.513635 C 168.02687,34.513635 157.47342,51.133861 143.39287,77.629511 L 144.31225,145.25654 z "
     style="fill:#000000;fill-opacity:1;fill-rule:evenodd;stroke:none;stroke-width:1px;stroke-linecap:butt;stroke-linejoin:miter;stroke-opacity:1"
     id="path4449" />
</svg>
