<?xml version="1.0" encoding="UTF-8" standalone="no"?>
<!-- Created with Inkscape (http://www.inkscape.org/) -->
<svg
   xmlns:svg="http://www.w3.org/2000/svg"
   xmlns="http://www.w3.org/2000/svg"
   version="1.0"
   width="43"
   height="36"
   viewBox="0 0 380 315"
   id="svg2">
  <defs
     id="defs4" />
  <path
     d="M 223.06026,171.57587 L 223.06026,284.9084 L 207.0274,284.9084 L 207.0274,307.73256 L 332.08395,307.73256 L 332.08395,285.50972 L 303.62554,285.50972 L 303.62554,29.941388 L 323.58122,29.941388 L 323.58122,7.2674381 L 207.0274,7.2674381 L 207.0274,29.941388 L 223.06026,29.941388 L 223.06026,149.63089 L 156.52369,149.63089 L 156.52369,29.941388 L 172.55666,29.941388 L 172.55666,7.2674381 L 56.00273,7.2674381 L 56.00273,29.941388 L 75.95841,29.941388 L 75.95841,285.50972 L 47.5,285.50972 L 47.5,307.73256 L 172.55666,307.73256 L 172.55666,284.9084 L 156.52369,284.9084 L 156.52369,171.57587 L 223.06026,171.57587 z "
     style="fill:#000000;fill-opacity:1;fill-rule:evenodd;stroke:none;stroke-width:1px;stroke-linecap:butt;stroke-linejoin:miter;stroke-opacity:1"
     id="path4789" />
</svg>
