<?xml version="1.0" encoding="UTF-8" standalone="no"?>
<!-- Created with Inkscape (http://www.inkscape.org/) -->
<svg
   xmlns:svg="http://www.w3.org/2000/svg"
   xmlns="http://www.w3.org/2000/svg"
   version="1.0"
   width="43"
   height="36"
   viewBox="0 0 380 315"
   id="svg2">
  <defs
     id="defs4" />
  <path
     d="M 105.02633,275.67833 C 93.898338,278.98228 89.627768,284.24547 99.191308,293.46124 C 146.66067,314.95666 194.53704,312.31001 251.17961,284.56978 C 277.40228,269.95523 284.60658,218.38091 228.95097,168.42516 C 204.37155,152.12746 180.40041,134.12326 161.70935,113.40929 C 100.20727,17.043816 271.86924,-10.568812 317.86551,140.63925 L 328.42412,140.63925 L 328.42412,7.2674397 L 49.454738,7.2674397 L 49.454738,30.144263 L 130.79554,30.144263 C 100.50291,72.101368 88.700508,133.14987 130.58926,166.20218 C 149.42147,177.84988 163.62813,192.127 176.71368,214.54958 C 190.49543,252.28224 181.59798,294.07497 105.02633,275.67833 z "
     style="fill:#000000;fill-opacity:1;fill-rule:evenodd;stroke:none;stroke-width:1px;stroke-linecap:butt;stroke-linejoin:miter;stroke-opacity:1"
     id="path3569" />
</svg>
