<?xml version="1.0" encoding="UTF-8" standalone="no"?>
<!-- Created with Inkscape (http://www.inkscape.org/) -->
<svg
   xmlns:svg="http://www.w3.org/2000/svg"
   xmlns="http://www.w3.org/2000/svg"
   version="1.0"
   width="43"
   height="36"
   viewBox="0 0 380 315"
   id="svg2">
  <defs
     id="defs4" />
  <g
     transform="matrix(10.894367,0,0,10.894367,-7060.7546,-848.69448)"
     id="g5357">
    <path
       d="M 661.40635,81.547515 L 662.82056,81.547515 L 662.82056,79.547515 L 652.53969,79.547515 L 652.53969,81.547515 L 654.29992,81.547515 L 654.29992,104.09043 L 651.78969,104.09043 L 651.78969,106.05064 L 662.82056,106.05064 L 662.82056,104.03739 L 661.40635,104.03739 L 661.40635,81.547515 z "
       style="fill:#000000;fill-opacity:1;fill-rule:evenodd;stroke:none;stroke-width:1px;stroke-linecap:butt;stroke-linejoin:miter;stroke-opacity:1"
       id="path5359" />
    <path
       d="M 661.14084,91.499075 C 664.57607,89.617637 665.794,85.592406 667.94084,82.349075 C 671.13109,77.52942 673.84592,78.118513 675.59084,79.749075 C 678.25164,82.235492 677.60521,84.608041 676.14084,86.049075 C 674.29725,87.863278 672.46406,87.790314 670.39084,84.299075 C 669.8739,83.428569 669.40841,84.722455 669.21584,85.274075 C 668.60657,87.019329 665.06245,91.057475 665.89084,91.499075 C 671.22929,94.344915 671.67724,99.833846 677.44084,104.04908 L 681.04084,104.04908 L 681.04084,106.14908 L 672.09084,106.14908 C 667.14237,103.30661 664.61215,94.738419 661.09084,93.849075 L 661.14084,91.499075 z "
       style="fill:#000000;fill-opacity:1;fill-rule:evenodd;stroke:none;stroke-width:1px;stroke-linecap:butt;stroke-linejoin:miter;stroke-opacity:1"
       id="path5361" />
  </g>
</svg>
