<?xml version="1.0" encoding="UTF-8" standalone="no"?>
<!-- Created with Inkscape (http://www.inkscape.org/) -->
<svg
   xmlns:svg="http://www.w3.org/2000/svg"
   xmlns="http://www.w3.org/2000/svg"
   version="1.0"
   width="43"
   height="36"
   viewBox="0 0 380 315"
   id="svg2">
  <defs
     id="defs4" />
  <g
     transform="matrix(11.102356,0,0,11.102356,-7219.0309,-1314.2564)"
     id="g5565">
    <path
       d="M 653.74299,143.46912 L 653.74299,146.09412 L 663.89707,146.09412 L 663.89707,143.46912 L 653.74299,143.46912 z "
       style="fill:#000000;fill-opacity:1;fill-rule:evenodd;stroke:none;stroke-width:2.59999895;stroke-linecap:butt;stroke-linejoin:miter;stroke-miterlimit:4;stroke-dasharray:none;stroke-opacity:1"
       id="path5567" />
    <path
       d="M 653.94691,143.6214 C 653.72218,143.52787 661.3247,132.78746 663.17465,128.06504 C 664.58756,124.4583 662.8266,121.84639 657.40965,121.54072 C 655.55505,121.43607 655.99324,123.09585 656.77534,123.25671 C 664.75152,124.89723 656.33694,132.07782 653.43151,129.27448 C 652.16561,128.05305 652.14345,125.15998 652.45267,122.75494 C 653.01527,118.37919 663.33621,116.86118 668.19511,123.78704 C 672.46137,129.86815 673.66189,137.93674 678.66787,143.72304 L 671.74287,143.72304 L 664.69493,130.29242 L 657.02283,143.76282 L 653.94691,143.6214 z "
       style="fill:#000000;fill-opacity:1;fill-rule:evenodd;stroke:none;stroke-width:1px;stroke-linecap:butt;stroke-linejoin:miter;stroke-opacity:1"
       id="path5569" />
    <path
       d="M 671.64299,143.46912 L 671.64299,146.09412 L 682.79707,146.09412 L 682.79707,143.46912 L 671.64299,143.46912 z "
       style="fill:#000000;fill-opacity:1;fill-rule:evenodd;stroke:none;stroke-width:2.59999895;stroke-linecap:butt;stroke-linejoin:miter;stroke-miterlimit:4;stroke-dasharray:none;stroke-opacity:1"
       id="path5571" />
  </g>
</svg>
