<?xml version="1.0" encoding="UTF-8" standalone="no"?>
<!-- Created with Inkscape (http://www.inkscape.org/) -->
<svg
   xmlns:svg="http://www.w3.org/2000/svg"
   xmlns="http://www.w3.org/2000/svg"
   version="1.0"
   width="43"
   height="36"
   viewBox="0 0 380 315"
   id="svg2">
  <defs
     id="defs4" />
  <path
     d="M 175.48696,266.72256 C 183.69306,282.16416 189.84366,291.85056 204.50206,291.85056 C 219.09836,291.85056 226.12266,282.07936 234.31376,266.59126 C 247.14826,264.77986 260.08556,262.62576 268.62066,275.14576 C 254.06376,295.05966 231.34876,307.73256 204.48726,307.73256 C 157.16326,307.73256 122.81926,269.06906 122.81926,220.17526 C 122.82876,219.36236 122.81926,218.54976 122.81926,217.73686 C 122.81926,168.84305 157.16326,130.17955 204.48726,130.17955 C 231.34876,130.17955 254.06376,142.85245 268.62066,162.76635 C 260.08556,175.28626 247.14826,173.13226 234.31376,171.32076 C 226.12266,155.83275 219.09836,146.06155 204.50206,146.06155 C 189.84366,146.06155 183.69306,155.74785 175.48696,171.18956 L 175.48696,266.72256 z "
     style="fill:#000000;fill-opacity:1;fill-rule:evenodd;stroke:none;stroke-width:1px;stroke-linecap:butt;stroke-linejoin:miter;stroke-opacity:1"
     id="path3939" />
</svg>
