<?xml version="1.0" encoding="UTF-8" standalone="no"?>
<!-- Created with Inkscape (http://www.inkscape.org/) -->
<svg
   xmlns:svg="http://www.w3.org/2000/svg"
   xmlns="http://www.w3.org/2000/svg"
   version="1.0"
   width="43"
   height="36"
   viewBox="0 0 380 315"
   id="svg2">
  <defs
     id="defs4" />
  <g
     transform="matrix(10.98771,0,0,10.98771,-6723.9709,-1594.2869)"
     id="g3321">
    <path
       d="M 622.8658,173.10426 L 636.1594,173.10426 L 636.1594,171.12436 L 632.58852,171.12436 L 632.58852,151.06283 L 626.79024,151.06283 L 626.79024,171.12436 L 622.8658,171.12436 L 622.8658,173.10426 z "
       style="fill:#000000;fill-opacity:1;fill-rule:evenodd;stroke:none;stroke-width:1px;stroke-linecap:butt;stroke-linejoin:miter;stroke-opacity:1"
       id="path3323" />
    <path
       d="M 626.81676,151.20162 L 628.87621,151.11766 C 627.54332,145.22668 619.50294,143.73524 615.86544,148.95656 C 612.45184,156.99034 619.26927,157.79031 622.14507,156.17551 C 624.49157,154.85792 625.94679,149.67949 619.04742,149.09798 C 619.43733,146.84437 625.66211,148.33736 626.81676,151.20162 z "
       style="fill:#000000;fill-opacity:1;fill-rule:evenodd;stroke:none;stroke-width:1px;stroke-linecap:butt;stroke-linejoin:miter;stroke-opacity:1"
       id="path3325" />
    <path
       d="M 632.52545,151.20162 L 630.466,151.11766 C 631.79889,145.22668 639.83927,143.73524 643.47677,148.95656 C 646.89037,156.99034 640.07294,157.79031 637.19714,156.17551 C 634.85064,154.85792 633.39542,149.67949 640.29479,149.09798 C 639.90488,146.84437 633.6801,148.33736 632.52545,151.20162 z "
       style="fill:#000000;fill-opacity:1;fill-rule:evenodd;stroke:none;stroke-width:1px;stroke-linecap:butt;stroke-linejoin:miter;stroke-opacity:1"
       id="path3327" />
  </g>
</svg>
